<svg xmlns="http://www.w3.org/2000/svg" width="49.884" height="34.268" viewBox="0 0 49.884 34.268"><path d="M39.413,16.269a10.615,10.615,0,0,0-5.992,1.85c3.719-10.5,12.066-11.73,12.5-11.785l-.372-3c-.154.018-15.5,2.128-16.819,23.355l.045,0c0,.082-.024.163-.024.245A10.666,10.666,0,1,0,39.413,16.269Zm0,18.312a7.643,7.643,0,1,1,7.643-7.643A7.649,7.649,0,0,1,39.413,34.581ZM10.885,16.269A10.6,10.6,0,0,0,4.9,18.12c3.719-10.5,12.063-11.73,12.5-11.785l-.372-3C16.865,3.354,1.525,5.464.2,26.691l.045,0c0,.082-.024.163-.024.245A10.666,10.666,0,1,0,10.885,16.269Zm0,18.312a7.643,7.643,0,1,1,7.643-7.643A7.649,7.649,0,0,1,10.885,34.581Z" transform="translate(-0.198 -3.336)"/></svg>