<svg xmlns="http://www.w3.org/2000/svg" width="49.885" height="34.269" viewBox="0 0 49.885 34.269"><path d="M10.867,16.27a10.615,10.615,0,0,1,5.992,1.85C13.141,7.623,4.793,6.389,4.361,6.335l.372-3c.154.018,15.5,2.128,16.819,23.355l-.045,0c0,.082.024.163.024.245A10.666,10.666,0,1,1,10.867,16.27Zm0,18.312a7.643,7.643,0,1,0-7.643-7.643A7.649,7.649,0,0,0,10.867,34.581ZM39.4,16.27a10.605,10.605,0,0,1,5.989,1.85c-3.719-10.5-12.063-11.73-12.5-11.785l.372-3c.154.018,15.494,2.128,16.822,23.355l-.045,0c0,.082.024.163.024.245A10.666,10.666,0,1,1,39.4,16.27Zm0,18.312a7.643,7.643,0,1,0-7.643-7.643A7.649,7.649,0,0,0,39.4,34.581Z" transform="translate(-0.198 -3.336)"/></svg>